<svg xmlns="http://www.w3.org/2000/svg" xmlns:xlink="http://www.w3.org/1999/xlink" viewBox="0,0,256,256" width="100px" height="100px" fill-rule="nonzero"><g fill="#c9c9c9" fill-rule="nonzero" stroke="none" stroke-width="1" stroke-linecap="butt" stroke-linejoin="miter" stroke-miterlimit="10" stroke-dasharray="" stroke-dashoffset="0" font-family="none" font-weight="none" font-size="none" text-anchor="none" style="mix-blend-mode: normal"><g transform="scale(5.12,5.12)"><path d="M25,2c-12.683,0 -23,10.317 -23,23c0,12.683 10.317,23 23,23c12.683,0 23,-10.317 23,-23c0,-12.683 -10.317,-23 -23,-23zM8.04297,12.66406l7.00391,11.41211c0.468,-5.082 4.75112,-9.07617 9.95313,-9.07617h18.46289c0.351,0.646 0.66231,1.316 0.94531,2h-13.43359c2.438,1.825 4.02539,4.727 4.02539,8c0,1.787 -0.47773,3.46302 -1.30273,4.91602c-0.007,0.014 -0.00567,0.02897 -0.01367,0.04297l-9.14648,16.01758c-0.747,-0.017 -1.48298,-0.07402 -2.20898,-0.16602l6.64844,-11.63867c-1.22,0.531 -2.56356,0.82813 -3.97656,0.82813c-3.559,0 -6.68113,-1.87559 -8.45312,-4.68359c-0.023,-0.029 -0.05031,-0.05198 -0.07031,-0.08398l-9.64453,-15.7168c0.371,-0.641 0.77594,-1.25656 1.21094,-1.85156zM25,17c-4.41828,0 -8,3.58172 -8,8c0,4.41828 3.58172,8 8,8c4.41828,0 8,-3.58172 8,-8c0,-4.41828 -3.58172,-8 -8,-8z"></path></g></g></svg>